<svg height="100" viewBox="0 0 100 100" width="100" xmlns="http://www.w3.org/2000/svg"><path d="m19.33 24.17-3.42 1.71v48.24l3.42 1.71 13.55-25.83z" fill="#9d5025"/><path d="m27.3 73.96-7.97 1.87v-51.66l7.97 1.82z" fill="#f58536"/><path d="m23.1 22.28 4.2-2.09 9.94 29.81-9.94 29.81-4.2-2.09z" fill="#9d5025"/><path d="m37.24 77-9.94 2.81v-59.62l9.94 2.82z" fill="#f58536"/><path d="m31.98 17.84 5.26-2.63 32.84 34.79-32.84 34.78-5.26-2.62z" fill="#9d5025"/><path d="m72.75 71.64-35.51 13.14v-69.57l35.51 12.98z" fill="#f58536"/><path d="m68.15 43.51-6.63.43-18.33-1.55 6.8-33.55z" fill="#6b3a19"/><path d="m49.99 41.7v-32.86l-6.8 3.4v30.15z" fill="#9d5025"/><path d="m68.15 43.51v-25.59l-18.16-9.08v32.86z" fill="#f58536"/><path d="m68.15 56.27-6.28-.4-18.68 1.58 6.8 33.71z" fill="#fbbf93"/><path d="m43.19 57.45v30.32l6.8 3.39v-33.09z" fill="#9d5025"/><path d="m49.99 58.07v33.09l18.16-9.08v-25.81z" fill="#f58536"/><path d="m84.09 54.69-3.9-.16-10.11.89 4.28 23.56z" fill="#fbbf93"/><path d="m74.36 55.65v23.33l9.73-4.87v-19.42z" fill="#f58536"/><path d="m84.09 45.11-3.9.16-10.11-.9 4.28-23.35z" fill="#6b3a19"/><path d="m84.09 45.11v-19.22l-9.73-4.87v23.11z" fill="#f58536"/><path d="m70.08 77.85 4.28 1.13v-23.33l-4.28-.23z" fill="#9d5025"/><path d="m70.08 22.15 4.28-1.13v23.11l-4.28.24z" fill="#9d5025"/><text font-family="HelveticaNeue-CondensedBold, Helvetica Neue" font-size="21" font-weight="700" transform="translate(-.49 -31.35)">Elastic Load<tspan x="8.9" y="25.2">Balancing</tspan></text></svg>