<svg height="100" viewBox="0 0 100 100" width="100" xmlns="http://www.w3.org/2000/svg"><g fill="#9d5025"><path d="m59.03 69.58v-10.47l-4.46-4.45-2.94-2.95 2.94-2.94 4.46-4.46v-10.47-.25h5.23v-3.42l-14.26-9.79-14.26 9.79v3.42h5.23v.25 10.47l4.46 4.46 2.94 2.94-2.94 2.95-4.46 4.45v10.47l-5.23-3.17v3.42l14.26 14.26 14.26-14.26v-3.42z"/><path d="m41.71 51.71v-3.42l-14.26-4.02h-13v14.88h13v6.82z"/><path d="m85.55 44.27h-12.99l-14.27 4.02v3.42l14.27 14.26v-6.82h12.99z"/></g><path d="m59.03 66.16v-10.47l-4.46-4.46-2.94-2.94 2.94-2.95 4.46-4.45v-10.47-.25h5.23l-14.26-14.26-14.26 14.26h5.23v.25 10.47l4.46 4.45 2.94 2.95-2.94 2.94-4.46 4.46v10.47.25h-5.23l14.26 14.26 14.26-14.26h-5.23z" fill="#f58536"/><path d="m41.71 48.29-14.26-14.27v6.83h-13v14.88h13v6.82z" fill="#f58536"/><path d="m85.55 40.85h-12.99v-6.83l-14.27 14.27 14.27 14.26v-6.82h12.99z" fill="#f58536"/></svg>