<svg height="100" viewBox="0 0 100 100" width="100" xmlns="http://www.w3.org/2000/svg"><path d="m19.64 22.51-3.64 1.81v51.36l3.64 1.81 14.34-26.42z" fill="#9d5025"/><path d="m30.72 31.78 5.36-7.59 24.02 10.68-5.6.89z" fill="#9d5025"/><path d="m26.56 68.77 5.9 8.11 27.64-11.93-5.34-.83z" fill="#9d5025"/><path d="m28.12 75.5-8.48 1.99v-54.98l8.48 1.93z" fill="#f58536"/><path d="m23.66 20.5 4.46-2.23 8.4 35.29-8.4 28.17-4.46-2.23z" fill="#9d5025"/><path d="m54.46 64.08 5.64.87 5.16-14.37-5.16-15.71-5.64.89z" fill="#9d5025"/><g fill="#f58536"><path d="m36.8 79.28-8.68 2.45v-63.46l8.68 2.46z"/><path d="m66.01 63.84-37.89 7.04v10.85l37.89-10.7z"/><path d="m66.08 36-37.96-7.21v-10.52l37.96 10.77z"/><path d="m60.1 27.34 6.09 1.68v42.01l-6.09 1.67z"/></g><path d="m84 44.45-16.3.77-5.76-.39 16.48-13.28z" fill="#6b3a19"/><path d="m61.94 44.83 16.48-.93v-12.35l-16.48 2.67z" fill="#9d5025"/><path d="m46.43 43.79 16.7-16.83 8.49 16.26-17.31 1.1z" fill="#6b3a19"/><path d="m46.43 43.79 16.7-1.42v-15.41l-16.7 3.91z" fill="#9d5025"/><path d="m61.94 55.39 22.06.38-5.58 12.9-16.48-2.67z" fill="#9d5025"/><path d="m46.43 56.43 25.19.58-8.49 16.25-16.7-3.9z" fill="#9d5025"/><path d="m46.43 56.43 16.7 1.43 8.49-.85-17.31-1.11z" fill="#fbbf93"/><path d="m84 55.77-16.3-.76-5.76.38 16.48.94z" fill="#fbbf93"/><path d="m78.42 43.9 5.58.55v-11.23l-5.58-1.67z" fill="#f58536"/><path d="m71.62 43.22-8.49-.85v-15.41l8.49 2.55z" fill="#f58536"/><path d="m78.42 56.33 5.58-.56v11.23l-5.58 1.67z" fill="#f58536"/><path d="m71.62 57.01-8.49.85v15.4l8.49-2.54z" fill="#f58536"/></svg>