<svg height="100" viewBox="0 0 100 100" width="100" xmlns="http://www.w3.org/2000/svg"><path d="m25.71 45.38-2.22.18-7.45-.3 2.06-10.29z" fill="#3c4929"/><path d="m25.71 54.95-2.22-.18-7.45.3 2.06 10.29z" fill="#b7ca9d"/><path d="m18.1 55.27-2.06-.2v9.67l2.06.62z" fill="#4b612c"/><path d="m25.71 64.37-7.61.99v-10.08l7.61-.33z" fill="#759c3e"/><path d="m39.66 55.74-6.12-.47-10.7.54 5.73 18.41z" fill="#b7ca9d"/><path d="m18.1 45.05-2.06.21v-9.67l2.06-.62z" fill="#4b612c"/><path d="m25.71 35.96-7.61-.99v10.07l7.61.34z" fill="#759c3e"/><path d="m39.66 44.59-6.12.46-10.7-.53 5.73-18.38z" fill="#3c4929"/><path d="m22.84 28.09 5.73-1.95v17.8l-5.73.58z" fill="#4b612c"/><path d="m39.66 28.55-11.09-2.41v17.8l11.09.65z" fill="#759c3e"/><path d="m22.84 72.1 5.73 2.12v-17.83l-5.73-.58z" fill="#4b612c"/><path d="m39.66 71.93-11.09 2.29v-17.83l11.09-.65z" fill="#759c3e"/><path d="m35.64 83.82 14.35 7.18 33.63-41-33.63-41-14.35 7.18z" fill="#4b612c"/><path d="m83.96 74.02-33.97 16.98v-82l33.97 16.98z" fill="#759c3e"/></svg>