<svg height="100" viewBox="0 0 100 100" width="100" xmlns="http://www.w3.org/2000/svg"><path d="m60.81 55.73-10.77-.66-33.96 2.18 9.58 21.63z" fill="#fbbf93"/><path d="m25.53 21.21-9.45 4.77v24.02h9.45l13.37-12.12z" fill="#9d5025"/><path d="m60.81 55.73-35.15 2.93v20.22l35.15-9.57z" fill="#f58536"/><path d="m42.66 50h-17.13v-28.79l17.13 4.64z" fill="#f58536"/><path d="m67.28 49.98 12.3.02v-23.61l-12.3 2.04z" fill="#9d5025"/><path d="m43.2 30.81 11.07-11.11 25.31 14.59-12.3 1.73z" fill="#6b3a19"/><path d="m31.88 50h18.08l9.48-18.96-9.48-22.04-18.08 9.04z" fill="#9d5025"/><path d="m49.96 9v41h10.16v-21.55l19.46 5.84v15.71h4.34v-24.02z" fill="#f58536"/><path d="m16.08 57.25 9.58 1.41v20.22l-9.58-4.78z" fill="#9d5025"/><path d="m83.92 57.16-16.33-1.01-35.71 3.46 18.08 31.39z" fill="#fbbf93"/><path d="m83.92 57.16-33.96 5.09v28.75l33.96-16.98z" fill="#f58536"/><path d="m31.88 59.61 18.08 2.64v28.75l-18.08-9.02z" fill="#9d5025"/></svg>